<svg width="500" height="500" viewBox="0 0 500 500" fill="none" xmlns="http://www.w3.org/2000/svg">
<path d="M252.014 285.489C252.217 285.489 252.46 285.489 252.703 285.489C252.946 285.489 253.189 285.489 253.432 285.532C253.635 285.532 253.797 285.575 254 285.618C254.365 285.661 254.729 285.746 255.094 285.832C255.175 285.875 255.256 285.875 255.337 285.918C255.499 285.961 255.661 286.047 255.824 286.132C254.608 286.132 252.865 285.532 251.609 285.447C251.73 285.489 251.852 285.489 252.014 285.489ZM252.014 285.489C252.217 285.489 252.46 285.489 252.703 285.489C252.946 285.489 253.189 285.489 253.432 285.532C253.635 285.532 253.797 285.575 254 285.618C254.365 285.661 254.729 285.746 255.094 285.832C255.175 285.875 255.256 285.875 255.337 285.918C255.499 285.961 255.661 286.047 255.824 286.132C254.608 286.132 252.865 285.532 251.609 285.447C251.73 285.489 251.852 285.489 252.014 285.489ZM252.014 285.489C252.217 285.489 252.46 285.489 252.703 285.489C252.946 285.489 253.189 285.489 253.432 285.532C253.635 285.532 253.797 285.575 254 285.618C254.365 285.661 254.729 285.746 255.094 285.832C255.175 285.875 255.256 285.875 255.337 285.918C255.499 285.961 255.661 286.047 255.824 286.132C254.608 286.132 252.865 285.532 251.609 285.447C251.73 285.489 251.852 285.489 252.014 285.489ZM236.776 286.175C237.344 286.175 237.425 285.618 237.87 285.532C237.911 285.532 237.992 285.489 238.073 285.489C241.883 283.475 246.34 282.146 250.758 282.146C255.216 282.146 259.633 283.475 263.442 285.489C263.605 285.575 263.767 285.661 263.929 285.789C268.224 288.489 272.439 292.389 274.871 296.932C277.424 302.289 278.68 307.689 278.68 313.047C278.68 313.475 278.68 313.947 278.64 314.375C278.437 318.618 277.181 322.818 274.871 326.461C274.749 326.718 274.628 327.018 274.465 327.275C272.52 330.961 269.521 334.047 265.955 336.575C265.914 336.618 265.874 336.661 265.833 336.704C265.307 337.261 265.266 337.261 264.699 337.261C255.216 343.261 244.476 342.661 235.601 336.704C235.561 336.661 235.52 336.661 235.479 336.618C231.873 334.047 229.401 330.918 226.969 327.147C226.847 326.932 226.685 326.718 226.564 326.547C224.092 322.604 223.403 318.061 222.795 313.475C222.795 313.347 222.754 313.218 222.754 313.09C222.146 302.289 227.253 292.218 236.776 286.175ZM225.956 315.704C225.956 319.518 227.091 322.775 228.833 325.947C228.914 326.118 229.036 326.29 229.117 326.461C229.765 327.575 230.454 328.604 231.224 329.59L231.265 329.632C232.116 330.747 233.048 331.818 233.98 332.847C234.628 333.575 235.317 334.261 235.966 334.99L236.087 335.118C237.992 336.447 239.897 337.818 241.802 338.461L246.259 339.79C251.974 341.118 257.688 339.79 263.402 336.447C264.05 335.761 264.658 335.761 265.307 335.118L265.428 334.99C266.198 334.175 266.968 333.361 267.657 332.632C268.508 331.732 269.278 330.832 270.008 329.932C271.021 328.69 271.953 327.447 272.723 326.075C272.804 325.947 272.844 325.861 272.925 325.775C273.574 324.447 274.182 323.075 274.83 321.747C275.479 320.418 275.479 319.047 276.087 317.032C276.087 316.347 276.087 315.704 276.735 315.018C276.735 314.975 276.735 314.89 276.735 314.847C276.857 313.904 276.897 312.961 276.857 311.975C276.816 307.604 275.6 303.232 273.533 298.904C270.98 294.189 266.563 290.161 262.105 288.147C261.497 288.147 260.889 287.504 260.241 287.461L260.2 287.461L255.742 286.132C254.527 286.132 252.784 285.532 251.528 285.447L251.447 285.447C251.406 285.447 251.366 285.447 251.285 285.447C247.475 285.447 244.314 286.132 240.505 288.147C239.856 288.147 239.248 288.832 238.6 289.475C233.534 292.818 229.076 297.532 227.172 303.575C226.523 304.904 226.523 306.275 225.915 308.289C225.632 309.532 225.47 310.647 225.429 311.761C225.429 312.789 225.51 313.818 225.753 314.932C225.834 315.19 225.915 315.447 225.956 315.704ZM252.014 285.489C252.217 285.489 252.46 285.489 252.703 285.489C252.946 285.489 253.189 285.489 253.432 285.532C253.635 285.532 253.797 285.575 254 285.618C254.365 285.661 254.729 285.746 255.094 285.832C255.175 285.875 255.256 285.875 255.337 285.918C255.499 285.961 255.661 286.047 255.824 286.132C254.608 286.132 252.865 285.532 251.609 285.447C251.73 285.489 251.852 285.489 252.014 285.489ZM252.014 285.489C252.217 285.489 252.46 285.489 252.703 285.489C252.946 285.489 253.189 285.489 253.432 285.532C253.635 285.532 253.797 285.575 254 285.618C254.365 285.661 254.729 285.746 255.094 285.832C255.175 285.875 255.256 285.875 255.337 285.918C255.499 285.961 255.661 286.047 255.824 286.132C254.608 286.132 252.865 285.532 251.609 285.447C251.73 285.489 251.852 285.489 252.014 285.489ZM252.014 285.489C252.217 285.489 252.46 285.489 252.703 285.489C252.946 285.489 253.189 285.489 253.432 285.532C253.635 285.532 253.797 285.575 254 285.618C254.365 285.661 254.729 285.746 255.094 285.832C255.175 285.875 255.256 285.875 255.337 285.918C255.499 285.961 255.661 286.047 255.824 286.132C254.608 286.132 252.865 285.532 251.609 285.447C251.73 285.489 251.852 285.489 252.014 285.489Z" fill="white"/>
<path d="M39.2147 445.092L220.528 428.592L220.893 428.549L229.119 377.506L229.768 373.477L229.849 373.006L234.834 339.92L235.482 337.22L235.604 336.663L235.968 335.077L236.09 334.562C235.928 334.477 235.806 334.391 235.644 334.262C235.441 334.134 235.239 333.962 235.036 333.834C234.671 333.577 234.307 333.277 233.982 332.977C233.658 332.677 233.294 332.334 233.01 331.991C232.686 331.648 232.402 331.262 232.078 330.92C231.916 330.748 231.794 330.534 231.632 330.32C231.51 330.105 231.348 329.934 231.227 329.72L231.186 329.677C231.105 329.548 231.024 329.42 230.943 329.291C230.943 329.291 230.943 329.291 230.943 329.248C230.862 329.12 230.781 328.948 230.659 328.82C230.578 328.691 230.497 328.562 230.416 328.434C230.335 328.305 230.295 328.22 230.214 328.091C230.133 327.962 230.092 327.834 230.011 327.748C229.97 327.662 229.889 327.534 229.849 327.448C229.849 327.448 229.808 327.405 229.808 327.362C229.808 327.362 229.808 327.362 229.808 327.32C229.808 327.32 229.808 327.277 229.768 327.277C229.768 327.277 229.768 327.234 229.727 327.234C229.525 326.805 229.281 326.377 229.079 325.905C228.957 325.691 228.836 325.477 228.755 325.262C227.174 322.262 226.08 318.791 225.958 315.791C225.958 315.577 225.958 315.405 225.958 315.191L225.958 315.148L225.796 315.062L223.405 313.82L222.838 313.52L220.893 312.491L191.025 300.405L190.417 300.148L190.093 300.019L185.959 298.348L141.462 280.262L141.34 280.477L135.748 288.705L35 437.377L52.7504 426.663L143.812 371.463C145.839 370.22 148.432 370.991 149.607 373.134C149.648 373.263 149.729 373.348 149.77 373.477C150.702 375.577 149.972 378.106 148.027 379.306L56.033 434.934L55.9925 434.977L39.2147 445.092Z" fill="white"/>
<path d="M39.2118 445.096L220.484 428.596L220.525 428.596L220.89 428.553L56.03 434.938L55.9895 434.938L39.2118 445.096Z" fill="white"/>
<path d="M265.348 334.5L265.875 336.643L265.997 337.2L266.645 339.9L271.63 372.986L271.711 373.457L272.319 377.614L279.938 428.529L461.859 447L445.446 436.843L353.452 380.1C351.669 379.029 350.939 376.757 351.547 374.786C351.628 374.486 351.75 374.229 351.912 373.971C353.087 371.829 355.721 371.1 357.748 372.343L447.715 427.843L447.796 427.886L465.749 438.986L361.233 281.442L360.706 281.657L315.925 299.271L311.71 300.942L311.508 301.028L281.194 313.028L278.641 314.357L278.6 314.357L276.736 314.871L276.29 315L276.088 315.043C276.088 315.728 276.088 316.371 275.439 317.057C275.439 317.914 275.196 318.728 274.832 319.757C274.75 319.971 274.71 320.185 274.629 320.4C274.548 320.614 274.467 320.828 274.386 321.085C274.305 321.3 274.224 321.557 274.143 321.814C273.494 323.143 272.886 324.514 272.238 325.843C270.414 329.143 267.902 331.8 265.348 334.5Z" fill="white"/>
<path d="M361.233 281.442L447.796 427.886L465.749 438.986L361.233 281.442Z" fill="white"/>
<path d="M170.72 227.072L211.368 262.687L236.129 284.158L238.682 286.173L240.587 288.187C243.748 286.858 247.558 285.487 251.367 285.487C252.623 285.487 254.528 285.487 255.825 286.173L260.283 287.501C260.283 287.501 260.931 287.501 261.539 287.501L263.444 286.173L265.997 284.158L290.758 262.687L332.014 227.072L331.973 226.944L255.663 52.2143L255.622 72.443L255.298 185.115C255.298 187.601 253.393 189.615 251.043 189.615C251.002 189.615 250.962 189.615 250.962 189.615C248.652 189.572 246.788 187.558 246.828 185.115L247.152 72.5287L247.152 72.4858L247.152 52L173.152 221.415L170.882 226.558L170.72 227.072Z" fill="white"/>
<path d="M236.122 334.509C235.96 334.423 235.839 334.337 235.676 334.209C235.514 334.08 235.352 333.994 235.231 333.866C235.19 333.823 235.109 333.78 235.069 333.737C235.028 333.737 234.987 333.694 234.987 333.652C234.825 333.523 234.663 333.394 234.542 333.266C234.38 333.137 234.217 332.966 234.055 332.837C233.083 331.809 232.191 330.737 231.34 329.623C231.259 329.494 231.138 329.323 231.056 329.194C230.975 329.066 230.894 328.894 230.773 328.766C230.692 328.637 230.611 328.509 230.53 328.38C230.449 328.252 230.408 328.166 230.327 328.037C230.246 327.909 230.205 327.78 230.124 327.694C230.084 327.609 230.003 327.48 229.962 327.394C229.962 327.394 229.922 327.352 229.922 327.309C229.922 327.309 229.922 327.309 229.922 327.266C229.922 327.266 229.922 327.223 229.881 327.223C229.881 327.223 229.881 327.18 229.841 327.18C229.8 327.094 229.76 327.009 229.719 326.923C229.638 326.751 229.557 326.58 229.476 326.409C229.395 326.237 229.314 326.066 229.233 325.851C231.056 329.152 233.569 331.809 236.122 334.509ZM236.122 334.509C235.96 334.423 235.839 334.337 235.676 334.209C235.514 334.08 235.352 333.994 235.231 333.866C235.19 333.823 235.109 333.78 235.069 333.737C235.028 333.737 234.987 333.694 234.987 333.652C234.825 333.523 234.663 333.394 234.542 333.266C234.38 333.137 234.217 332.966 234.055 332.837C233.083 331.809 232.191 330.737 231.34 329.623C231.259 329.494 231.138 329.323 231.056 329.194C230.975 329.066 230.894 328.894 230.773 328.766C230.692 328.637 230.611 328.509 230.53 328.38C230.449 328.252 230.408 328.166 230.327 328.037C230.246 327.909 230.205 327.78 230.124 327.694C230.084 327.609 230.003 327.48 229.962 327.394C229.962 327.394 229.922 327.352 229.922 327.309C229.922 327.309 229.922 327.309 229.922 327.266C229.922 327.266 229.922 327.223 229.881 327.223C229.881 327.223 229.881 327.18 229.841 327.18C229.8 327.094 229.76 327.009 229.719 326.923C229.638 326.751 229.557 326.58 229.476 326.409C229.395 326.237 229.314 326.066 229.233 325.851C231.056 329.152 233.569 331.809 236.122 334.509ZM236.122 334.509C235.96 334.423 235.839 334.337 235.676 334.209C235.514 334.08 235.352 333.994 235.231 333.866C235.19 333.823 235.15 333.78 235.109 333.78C235.069 333.737 235.028 333.694 234.947 333.652C234.785 333.523 234.623 333.394 234.501 333.266C234.339 333.137 234.177 332.966 234.015 332.837C233.042 331.809 232.151 330.737 231.3 329.623C231.219 329.494 231.097 329.323 231.016 329.194C230.935 329.066 230.854 328.894 230.732 328.766C230.651 328.637 230.57 328.509 230.489 328.38C230.408 328.252 230.368 328.166 230.286 328.037C230.205 327.909 230.165 327.78 230.084 327.694C230.043 327.609 229.962 327.48 229.922 327.394C229.922 327.394 229.881 327.352 229.881 327.309C229.881 327.309 229.881 327.309 229.881 327.266C229.881 327.266 229.881 327.223 229.841 327.223C229.841 327.223 229.841 327.18 229.8 327.18C229.76 327.094 229.719 327.009 229.679 326.923C229.598 326.751 229.516 326.58 229.435 326.409C229.354 326.237 229.273 326.066 229.192 325.851C231.056 329.152 233.569 331.809 236.122 334.509ZM236.122 334.509C235.96 334.423 235.839 334.337 235.676 334.209C235.514 334.08 235.352 333.994 235.231 333.866C235.19 333.823 235.15 333.78 235.109 333.78C235.069 333.737 235.028 333.694 234.947 333.652C234.785 333.523 234.623 333.394 234.501 333.266C234.339 333.137 234.177 332.966 234.015 332.837C233.042 331.809 232.151 330.737 231.3 329.623C231.219 329.494 231.097 329.323 231.016 329.194C230.935 329.066 230.813 328.894 230.732 328.723C230.651 328.594 230.57 328.466 230.489 328.337C230.408 328.209 230.368 328.123 230.286 327.994C230.205 327.866 230.165 327.737 230.084 327.652C230.043 327.523 229.962 327.437 229.922 327.352C229.922 327.352 229.881 327.309 229.881 327.266C229.8 327.137 229.76 327.009 229.679 326.88C229.598 326.709 229.516 326.537 229.435 326.366C229.354 326.194 229.273 326.023 229.192 325.809C231.056 329.152 233.569 331.809 236.122 334.509ZM56.0248 434.881L148.019 379.252C149.964 378.095 150.693 375.523 149.761 373.423C149.721 373.295 149.64 373.209 149.599 373.08C148.424 370.937 145.83 370.166 143.804 371.409L52.7827 426.481L135.78 288.566L140.886 280.123L141.372 280.337L185.992 298.466L190.125 300.137L190.449 300.266C190.449 300.18 190.49 300.094 190.49 300.051C193.043 285.351 200.054 272.023 211.401 262.68L210.793 262.165L207.308 259.08L170.754 227.065L170.754 227.022L170.956 226.594L212.86 141.736L247.105 72.4788L246.781 185.065C246.781 187.508 248.604 189.522 250.914 189.565C250.955 189.565 250.955 189.565 250.995 189.565C253.346 189.565 255.25 187.551 255.25 185.065L255.575 72.3931L331.966 226.937L332.007 227.022L294.682 259.208L290.994 262.38L290.711 262.637C295.776 267.351 300.883 273.394 304.044 280.08C307.853 286.808 309.758 293.494 311.014 300.909L311.419 300.737L315.837 299.023L360.577 281.451L360.699 281.666L447.708 427.852L357.7 372.309C355.674 371.066 353.08 371.795 351.864 373.937C351.702 374.195 351.581 374.495 351.5 374.752C350.851 376.723 351.621 378.995 353.404 380.066L445.439 436.852L279.971 428.538L272.352 377.623L271.745 373.466C257.763 378.823 243.174 378.18 230.449 373.466L229.76 377.709L221.533 428.538L220.52 428.581L56.0248 434.923L56.0248 434.881ZM272.312 325.766C273.568 324.437 274.217 323.066 274.865 321.051C275.513 319.723 275.513 318.351 276.121 316.337C276.121 315.866 276.121 315.394 276.324 314.923C276.405 314.709 276.567 314.494 276.729 314.323C276.81 313.551 276.891 312.737 276.891 311.966C276.972 307.38 275.716 302.794 273.568 298.208C271.015 293.494 266.598 289.466 262.14 287.451C261.978 287.451 261.816 287.408 261.654 287.366C261.167 287.194 260.721 286.808 260.235 286.808L255.777 285.48C254.521 285.48 252.616 284.794 251.319 284.794C251.117 284.794 250.914 284.794 250.671 284.794C247.145 284.88 244.106 285.566 240.499 287.494C240.337 287.494 240.175 287.537 239.972 287.623C239.486 287.837 239.04 288.351 238.594 288.823C233.529 292.166 229.071 296.88 227.166 302.923C226.518 304.251 226.518 305.623 225.91 307.637C225.545 309.137 225.383 310.466 225.423 311.794C225.464 312.823 225.626 313.851 225.91 315.051L225.91 315.094C225.91 315.309 225.91 315.523 225.91 315.694C226.031 319.209 227.125 322.209 228.706 325.166C228.828 325.38 228.949 325.594 229.071 325.809C230.975 329.152 233.529 331.852 236.041 334.552C237.946 335.88 239.851 337.252 241.755 337.894L246.213 339.223C251.927 340.552 257.641 339.223 263.356 335.88C264.004 335.194 264.612 335.194 265.26 334.552C266.071 334.037 266.881 333.394 267.611 332.709C268.502 331.894 269.272 330.994 269.961 330.009C271.015 328.637 271.785 327.223 272.312 325.766ZM236.122 334.509C235.96 334.423 235.839 334.337 235.676 334.209C235.514 334.08 235.352 333.994 235.231 333.866C235.19 333.823 235.15 333.78 235.109 333.78C235.069 333.737 235.028 333.694 234.947 333.652C234.785 333.523 234.623 333.394 234.501 333.266C234.339 333.137 234.177 332.966 234.015 332.837C233.042 331.809 232.151 330.737 231.3 329.623C231.219 329.494 231.097 329.323 231.016 329.194C230.935 329.066 230.813 328.894 230.732 328.723C230.651 328.594 230.57 328.466 230.489 328.337C230.408 328.209 230.368 328.123 230.286 327.994C230.205 327.866 230.165 327.737 230.084 327.652C230.043 327.566 229.962 327.437 229.922 327.352C229.922 327.352 229.881 327.309 229.881 327.266C229.8 327.137 229.76 327.009 229.679 326.88C229.598 326.709 229.516 326.537 229.435 326.366C229.354 326.194 229.273 326.023 229.192 325.809C231.056 329.152 233.569 331.809 236.122 334.509ZM236.122 334.509C235.96 334.423 235.839 334.337 235.676 334.209C235.514 334.08 235.352 333.994 235.231 333.866C235.19 333.823 235.109 333.78 235.069 333.737C235.028 333.737 234.987 333.694 234.987 333.652C234.825 333.523 234.663 333.394 234.542 333.266C234.38 333.137 234.217 332.966 234.055 332.837C233.083 331.809 232.191 330.737 231.34 329.623C231.259 329.494 231.138 329.323 231.056 329.194C230.975 329.066 230.894 328.894 230.773 328.766C230.692 328.637 230.611 328.509 230.53 328.38C230.449 328.252 230.408 328.166 230.327 328.037C230.246 327.909 230.205 327.78 230.124 327.694C230.084 327.609 230.003 327.48 229.962 327.394C229.962 327.394 229.922 327.352 229.922 327.309C229.922 327.309 229.922 327.309 229.922 327.266C229.922 327.266 229.922 327.223 229.881 327.223C229.881 327.223 229.881 327.18 229.841 327.18C229.8 327.094 229.76 327.009 229.719 326.923C229.638 326.751 229.557 326.58 229.476 326.409C229.395 326.237 229.314 326.066 229.233 325.851C231.056 329.152 233.569 331.809 236.122 334.509Z" fill="white"/>
<path d="M170.722 227.03L170.965 226.601L212.869 141.743L247.114 72.4858L247.114 72.443L247.154 52L173.194 221.415L170.925 226.558L170.722 227.03Z" fill="white"/>
<path d="M148.023 379.257L56.0286 434.886L220.888 428.543L229.115 377.5L229.763 373.471L229.844 373L234.87 339.914L235.518 337.214L235.64 336.656L236.004 335.071L236.126 334.556C235.559 334.171 234.991 333.785 234.505 333.356C234.343 333.228 234.181 333.056 234.019 332.928C233.694 332.628 233.37 332.285 233.046 331.985C232.398 331.299 231.83 330.528 231.303 329.714C231.101 329.414 230.898 329.114 230.695 328.771C230.614 328.642 230.533 328.514 230.452 328.385C230.169 327.914 229.925 327.442 229.682 326.928C229.601 326.756 229.52 326.585 229.439 326.414C229.358 326.242 229.277 326.071 229.196 325.856L228.912 326.028L227.048 327.142L197.667 344.799L193.979 347.028L149.806 373.557C150.697 375.571 149.968 378.1 148.023 379.257Z" fill="white"/>
<path d="M272.32 325.757L272.765 326.057L274.224 327.085L274.468 327.214L276.778 328.414L303.444 345.214L303.525 345.257L307.415 347.657L351.588 374.743C351.67 374.443 351.791 374.186 351.953 373.928C353.128 371.786 355.763 371.057 357.789 372.3L447.716 427.843L447.797 427.886L361.234 281.442L360.707 281.657L315.926 299.271L311.711 300.942L311.508 301.028L281.195 313.028L278.642 314.357L278.601 314.357L276.737 314.871L276.291 315L276.089 315.043C276.089 315.728 276.089 316.371 275.44 317.057C275.44 317.914 275.197 318.728 274.832 319.757C274.751 319.971 274.711 320.185 274.63 320.4C274.549 320.614 274.468 320.828 274.386 321.085C274.305 321.3 274.224 321.557 274.143 321.814C273.576 323.1 272.968 324.428 272.32 325.757Z" fill="white"/>
<path d="M170.723 226.383L170.926 226.554L211.37 261.998L236.132 283.512L238.685 286.212L240.59 288.226C243.751 286.212 247.56 285.526 250.762 285.526L250.762 247.255L250.924 189.569C248.614 189.526 246.75 187.511 246.79 185.069L247.114 72.4823L247.114 72.4395L173.195 221.412L170.723 226.383Z" fill="white"/>
<path d="M185.961 298.485C185.961 298.399 186.002 298.313 186.002 298.27C188.838 282.799 196.457 269.127 207.237 259.099C207.359 258.97 207.48 258.885 207.602 258.756C219.152 248.17 234.227 241.742 250.722 241.699L250.843 241.699C267.661 241.699 283.021 248.342 294.652 259.27C305.513 269.47 313.172 283.356 315.847 299.085C315.847 299.17 315.887 299.256 315.887 299.299C316.576 303.285 316.9 307.356 316.9 311.513C316.9 324.756 313.415 337.142 307.377 347.685C299.434 361.571 287.033 372.242 272.281 377.599C265.554 380.042 258.34 381.371 250.843 381.371C243.427 381.371 236.335 380.085 229.689 377.728C229.486 377.642 229.283 377.599 229.081 377.514C214.208 372.028 201.766 361.099 193.864 346.956C188.068 336.585 184.745 324.456 184.745 311.513C184.826 307.056 185.232 302.728 185.961 298.485ZM250.478 292.656C240.428 292.656 232.242 301.313 232.242 311.942C232.242 322.571 240.428 331.228 250.478 331.228C260.529 331.228 268.715 322.571 268.715 311.942C268.715 301.313 260.529 292.656 250.478 292.656Z" fill="white"/>
</svg>
