<svg width="500" height="500" viewBox="0 0 500 500" fill="none" xmlns="http://www.w3.org/2000/svg">
<path d="M252.016 285.489C252.219 285.489 252.462 285.489 252.705 285.489C252.948 285.489 253.191 285.489 253.434 285.532C253.637 285.532 253.799 285.575 254.002 285.618C254.367 285.661 254.731 285.746 255.096 285.832C255.177 285.875 255.258 285.875 255.339 285.918C255.501 285.961 255.663 286.047 255.826 286.132C254.61 286.132 252.867 285.532 251.611 285.447C251.732 285.489 251.854 285.489 252.016 285.489ZM252.016 285.489C252.219 285.489 252.462 285.489 252.705 285.489C252.948 285.489 253.191 285.489 253.434 285.532C253.637 285.532 253.799 285.575 254.002 285.618C254.367 285.661 254.731 285.746 255.096 285.832C255.177 285.875 255.258 285.875 255.339 285.918C255.501 285.961 255.663 286.047 255.826 286.132C254.61 286.132 252.867 285.532 251.611 285.447C251.732 285.489 251.854 285.489 252.016 285.489ZM252.016 285.489C252.219 285.489 252.462 285.489 252.705 285.489C252.948 285.489 253.191 285.489 253.434 285.532C253.637 285.532 253.799 285.575 254.002 285.618C254.367 285.661 254.731 285.746 255.096 285.832C255.177 285.875 255.258 285.875 255.339 285.918C255.501 285.961 255.663 286.047 255.826 286.132C254.61 286.132 252.867 285.532 251.611 285.447C251.732 285.489 251.854 285.489 252.016 285.489ZM236.778 286.175C237.346 286.175 237.427 285.618 237.872 285.532C237.913 285.532 237.994 285.489 238.075 285.489C241.885 283.475 246.342 282.146 250.76 282.146C255.218 282.146 259.635 283.475 263.444 285.489C263.607 285.575 263.769 285.661 263.931 285.789C268.226 288.489 272.441 292.389 274.873 296.932C277.426 302.289 278.682 307.689 278.682 313.047C278.682 313.475 278.682 313.947 278.642 314.375C278.439 318.618 277.183 322.818 274.873 326.461C274.751 326.718 274.63 327.018 274.467 327.275C272.522 330.961 269.523 334.047 265.957 336.575C265.916 336.618 265.876 336.661 265.835 336.704C265.309 337.261 265.268 337.261 264.701 337.261C255.218 343.261 244.478 342.661 235.603 336.704C235.563 336.661 235.522 336.661 235.481 336.618C231.875 334.047 229.403 330.918 226.971 327.147C226.849 326.932 226.687 326.718 226.566 326.547C224.094 322.604 223.405 318.061 222.797 313.475C222.797 313.347 222.756 313.218 222.756 313.09C222.148 302.289 227.255 292.218 236.778 286.175ZM225.958 315.704C225.958 319.518 227.093 322.775 228.835 325.947C228.916 326.118 229.038 326.29 229.119 326.461C229.767 327.575 230.456 328.604 231.226 329.59L231.267 329.632C232.118 330.747 233.05 331.818 233.982 332.847C234.63 333.575 235.319 334.261 235.968 334.99L236.089 335.118C237.994 336.447 239.899 337.818 241.804 338.461L246.261 339.79C251.976 341.118 257.69 339.79 263.404 336.447C264.052 335.761 264.66 335.761 265.309 335.118L265.43 334.99C266.2 334.175 266.97 333.361 267.659 332.632C268.51 331.732 269.28 330.832 270.01 329.932C271.023 328.69 271.955 327.447 272.725 326.075C272.806 325.947 272.846 325.861 272.927 325.775C273.576 324.447 274.184 323.075 274.832 321.747C275.481 320.418 275.481 319.047 276.089 317.032C276.089 316.347 276.089 315.704 276.737 315.018C276.737 314.975 276.737 314.89 276.737 314.847C276.859 313.904 276.899 312.961 276.859 311.975C276.818 307.604 275.602 303.232 273.535 298.904C270.982 294.189 266.565 290.161 262.107 288.147C261.499 288.147 260.891 287.504 260.243 287.461H260.202L255.744 286.132C254.529 286.132 252.786 285.532 251.53 285.447H251.449C251.408 285.447 251.368 285.447 251.287 285.447C247.477 285.447 244.316 286.132 240.507 288.147C239.858 288.147 239.25 288.832 238.602 289.475C233.536 292.818 229.078 297.532 227.174 303.575C226.525 304.904 226.525 306.275 225.917 308.289C225.634 309.532 225.472 310.647 225.431 311.761C225.431 312.789 225.512 313.818 225.755 314.932C225.836 315.19 225.917 315.447 225.958 315.704ZM252.016 285.489C252.219 285.489 252.462 285.489 252.705 285.489C252.948 285.489 253.191 285.489 253.434 285.532C253.637 285.532 253.799 285.575 254.002 285.618C254.367 285.661 254.731 285.746 255.096 285.832C255.177 285.875 255.258 285.875 255.339 285.918C255.501 285.961 255.663 286.047 255.826 286.132C254.61 286.132 252.867 285.532 251.611 285.447C251.732 285.489 251.854 285.489 252.016 285.489ZM252.016 285.489C252.219 285.489 252.462 285.489 252.705 285.489C252.948 285.489 253.191 285.489 253.434 285.532C253.637 285.532 253.799 285.575 254.002 285.618C254.367 285.661 254.731 285.746 255.096 285.832C255.177 285.875 255.258 285.875 255.339 285.918C255.501 285.961 255.663 286.047 255.826 286.132C254.61 286.132 252.867 285.532 251.611 285.447C251.732 285.489 251.854 285.489 252.016 285.489ZM252.016 285.489C252.219 285.489 252.462 285.489 252.705 285.489C252.948 285.489 253.191 285.489 253.434 285.532C253.637 285.532 253.799 285.575 254.002 285.618C254.367 285.661 254.731 285.746 255.096 285.832C255.177 285.875 255.258 285.875 255.339 285.918C255.501 285.961 255.663 286.047 255.826 286.132C254.61 286.132 252.867 285.532 251.611 285.447C251.732 285.489 251.854 285.489 252.016 285.489Z" fill="white"/>
<path d="M39.2147 445.092L220.528 428.592L220.893 428.549L229.119 377.506L229.768 373.477L229.849 373.006L234.834 339.92L235.482 337.22L235.604 336.663L235.968 335.077L236.09 334.562C235.928 334.477 235.806 334.391 235.644 334.262C235.441 334.134 235.239 333.962 235.036 333.834C234.671 333.577 234.307 333.277 233.982 332.977C233.658 332.677 233.294 332.334 233.01 331.991C232.686 331.648 232.402 331.262 232.078 330.92C231.916 330.748 231.794 330.534 231.632 330.32C231.51 330.105 231.348 329.934 231.227 329.72L231.186 329.677C231.105 329.548 231.024 329.42 230.943 329.291C230.943 329.291 230.943 329.291 230.943 329.248C230.862 329.12 230.781 328.948 230.659 328.82C230.578 328.691 230.497 328.562 230.416 328.434C230.335 328.305 230.295 328.22 230.214 328.091C230.133 327.962 230.092 327.834 230.011 327.748C229.97 327.662 229.889 327.534 229.849 327.448C229.849 327.448 229.808 327.405 229.808 327.362C229.808 327.362 229.808 327.362 229.808 327.32C229.808 327.32 229.808 327.277 229.768 327.277C229.768 327.277 229.768 327.234 229.727 327.234C229.525 326.805 229.281 326.377 229.079 325.905C228.957 325.691 228.836 325.477 228.755 325.262C227.174 322.262 226.08 318.791 225.958 315.791C225.958 315.577 225.958 315.405 225.958 315.191V315.148L225.796 315.062L223.405 313.82L222.838 313.52L220.893 312.491L191.025 300.405L190.417 300.148L190.093 300.019L185.959 298.348L141.462 280.262L141.34 280.477L135.748 288.705L34.5 438L52.7504 426.663L143.812 371.463C145.839 370.22 148.432 370.991 149.607 373.134C149.648 373.263 149.729 373.348 149.77 373.477C150.702 375.577 149.972 378.106 148.027 379.306L56.033 434.934L55.9925 434.977L39.2147 445.092Z" fill="white"/>
<path d="M39.2109 445.096L220.483 428.596H220.524L220.889 428.553L56.0291 434.938H55.9886L39.2109 445.096Z" fill="white"/>
<path d="M265.348 334.5L265.875 336.643L265.997 337.2L266.645 339.9L271.63 372.986L271.711 373.457L272.319 377.614L279.938 428.529L461.859 447L445.446 436.843L353.452 380.1C351.669 379.029 350.939 376.757 351.547 374.786C351.628 374.486 351.75 374.229 351.912 373.971C353.087 371.829 355.721 371.1 357.748 372.343L447.715 427.843L447.796 427.886L465.749 438.986L361.233 281.442L360.706 281.657L315.925 299.271L311.71 300.942L311.508 301.028L281.194 313.028L278.641 314.357H278.6L276.736 314.871L276.29 315L276.088 315.043C276.088 315.728 276.088 316.371 275.439 317.057C275.439 317.914 275.196 318.728 274.832 319.757C274.75 319.971 274.71 320.185 274.629 320.4C274.548 320.614 274.467 320.828 274.386 321.085C274.305 321.3 274.224 321.557 274.143 321.814C273.494 323.143 272.886 324.514 272.238 325.843C270.414 329.143 267.902 331.8 265.348 334.5Z" fill="white"/>
<path d="M361.234 281.442L447.797 427.886L466.502 439.5L361.234 281.442Z" fill="white"/>
<path d="M170.719 227.072L211.367 262.687L236.128 284.158L238.681 286.173L240.586 288.187C243.747 286.858 247.557 285.487 251.366 285.487C252.622 285.487 254.527 285.487 255.824 286.173L260.282 287.501C260.282 287.501 260.93 287.501 261.538 287.501L263.443 286.173L265.996 284.158L290.757 262.687L332.013 227.072L331.972 226.944L255.498 52L255.621 72.443L255.297 185.115C255.297 187.601 253.392 189.615 251.042 189.615C251.001 189.615 250.961 189.615 250.961 189.615C248.651 189.572 246.787 187.558 246.827 185.115L247.151 72.5287V72.4858V52L173.151 221.415L170.881 226.558L170.719 227.072Z" fill="white"/>
<path d="M236.121 334.509C235.959 334.423 235.838 334.337 235.675 334.209C235.513 334.08 235.351 333.994 235.23 333.866C235.189 333.823 235.108 333.78 235.068 333.737C235.027 333.737 234.986 333.694 234.986 333.652C234.824 333.523 234.662 333.394 234.541 333.266C234.379 333.137 234.216 332.966 234.054 332.837C233.082 331.809 232.19 330.737 231.339 329.623C231.258 329.494 231.137 329.323 231.055 329.194C230.974 329.066 230.893 328.894 230.772 328.766C230.691 328.637 230.61 328.509 230.529 328.38C230.448 328.252 230.407 328.166 230.326 328.037C230.245 327.909 230.204 327.78 230.123 327.694C230.083 327.609 230.002 327.48 229.961 327.394C229.961 327.394 229.921 327.352 229.921 327.309C229.921 327.309 229.921 327.309 229.921 327.266C229.921 327.266 229.921 327.223 229.88 327.223C229.88 327.223 229.88 327.18 229.84 327.18C229.799 327.094 229.759 327.009 229.718 326.923C229.637 326.751 229.556 326.58 229.475 326.409C229.394 326.237 229.313 326.066 229.232 325.851C231.055 329.152 233.568 331.809 236.121 334.509ZM236.121 334.509C235.959 334.423 235.838 334.337 235.675 334.209C235.513 334.08 235.351 333.994 235.23 333.866C235.189 333.823 235.108 333.78 235.068 333.737C235.027 333.737 234.986 333.694 234.986 333.652C234.824 333.523 234.662 333.394 234.541 333.266C234.379 333.137 234.216 332.966 234.054 332.837C233.082 331.809 232.19 330.737 231.339 329.623C231.258 329.494 231.137 329.323 231.055 329.194C230.974 329.066 230.893 328.894 230.772 328.766C230.691 328.637 230.61 328.509 230.529 328.38C230.448 328.252 230.407 328.166 230.326 328.037C230.245 327.909 230.204 327.78 230.123 327.694C230.083 327.609 230.002 327.48 229.961 327.394C229.961 327.394 229.921 327.352 229.921 327.309C229.921 327.309 229.921 327.309 229.921 327.266C229.921 327.266 229.921 327.223 229.88 327.223C229.88 327.223 229.88 327.18 229.84 327.18C229.799 327.094 229.759 327.009 229.718 326.923C229.637 326.751 229.556 326.58 229.475 326.409C229.394 326.237 229.313 326.066 229.232 325.851C231.055 329.152 233.568 331.809 236.121 334.509ZM236.121 334.509C235.959 334.423 235.838 334.337 235.675 334.209C235.513 334.08 235.351 333.994 235.23 333.866C235.189 333.823 235.149 333.78 235.108 333.78C235.068 333.737 235.027 333.694 234.946 333.652C234.784 333.523 234.622 333.394 234.5 333.266C234.338 333.137 234.176 332.966 234.014 332.837C233.041 331.809 232.15 330.737 231.299 329.623C231.218 329.494 231.096 329.323 231.015 329.194C230.934 329.066 230.853 328.894 230.731 328.766C230.65 328.637 230.569 328.509 230.488 328.38C230.407 328.252 230.367 328.166 230.285 328.037C230.204 327.909 230.164 327.78 230.083 327.694C230.042 327.609 229.961 327.48 229.921 327.394C229.921 327.394 229.88 327.352 229.88 327.309C229.88 327.309 229.88 327.309 229.88 327.266C229.88 327.266 229.88 327.223 229.84 327.223C229.84 327.223 229.84 327.18 229.799 327.18C229.759 327.094 229.718 327.009 229.678 326.923C229.597 326.751 229.515 326.58 229.434 326.409C229.353 326.237 229.272 326.066 229.191 325.851C231.055 329.152 233.568 331.809 236.121 334.509ZM236.121 334.509C235.959 334.423 235.838 334.337 235.675 334.209C235.513 334.08 235.351 333.994 235.23 333.866C235.189 333.823 235.149 333.78 235.108 333.78C235.068 333.737 235.027 333.694 234.946 333.652C234.784 333.523 234.622 333.394 234.5 333.266C234.338 333.137 234.176 332.966 234.014 332.837C233.041 331.809 232.15 330.737 231.299 329.623C231.218 329.494 231.096 329.323 231.015 329.194C230.934 329.066 230.812 328.894 230.731 328.723C230.65 328.594 230.569 328.466 230.488 328.337C230.407 328.209 230.367 328.123 230.285 327.994C230.204 327.866 230.164 327.737 230.083 327.652C230.042 327.523 229.961 327.437 229.921 327.352C229.921 327.352 229.88 327.309 229.88 327.266C229.799 327.137 229.759 327.009 229.678 326.88C229.597 326.709 229.515 326.537 229.434 326.366C229.353 326.194 229.272 326.023 229.191 325.809C231.055 329.152 233.568 331.809 236.121 334.509ZM56.0233 434.881L148.018 379.252C149.963 378.095 150.692 375.523 149.76 373.423C149.72 373.295 149.639 373.209 149.598 373.08C148.423 370.937 145.829 370.166 143.803 371.409L52.7812 426.481L135.779 288.566L140.885 280.123L141.371 280.337L185.991 298.466L190.124 300.137L190.448 300.266C190.448 300.18 190.489 300.094 190.489 300.051C193.042 285.351 200.053 272.023 211.4 262.68L210.792 262.165L207.307 259.08L170.753 227.065V227.022L170.955 226.594L212.859 141.736L247.104 72.4788L246.78 185.065C246.78 187.508 248.603 189.522 250.913 189.565C250.954 189.565 250.954 189.565 250.994 189.565C253.345 189.565 255.249 187.551 255.249 185.065L255.998 72.5L331.965 226.937L332.006 227.022L294.681 259.208L290.993 262.38L290.71 262.637C295.775 267.351 300.882 273.394 304.043 280.08C307.852 286.808 309.757 293.494 311.013 300.909L311.418 300.737L315.836 299.023L360.576 281.451L360.698 281.666L447.707 427.852L357.699 372.309C355.673 371.066 353.079 371.795 351.863 373.937C351.701 374.195 351.58 374.495 351.499 374.752C350.85 376.723 351.62 378.995 353.403 380.066L445.438 436.852L279.97 428.538L272.351 377.623L271.744 373.466C257.762 378.823 243.173 378.18 230.448 373.466L229.759 377.709L221.532 428.538L220.519 428.581L56.0233 434.923V434.881ZM272.311 325.766C273.567 324.437 274.216 323.066 274.864 321.051C275.512 319.723 275.512 318.351 276.12 316.337C276.12 315.866 276.12 315.394 276.323 314.923C276.404 314.709 276.566 314.494 276.728 314.323C276.809 313.551 276.89 312.737 276.89 311.966C276.971 307.38 275.715 302.794 273.567 298.208C271.014 293.494 266.597 289.466 262.139 287.451C261.977 287.451 261.815 287.408 261.653 287.366C261.166 287.194 260.72 286.808 260.234 286.808L255.776 285.48C254.52 285.48 252.615 284.794 251.318 284.794C251.116 284.794 250.913 284.794 250.67 284.794C247.144 284.88 244.105 285.566 240.498 287.494C240.336 287.494 240.174 287.537 239.971 287.623C239.485 287.837 239.039 288.351 238.593 288.823C233.528 292.166 229.07 296.88 227.165 302.923C226.517 304.251 226.517 305.623 225.909 307.637C225.544 309.137 225.382 310.466 225.422 311.794C225.463 312.823 225.625 313.851 225.909 315.051V315.094C225.909 315.309 225.909 315.523 225.909 315.694C226.03 319.209 227.124 322.209 228.705 325.166C228.827 325.38 228.948 325.594 229.07 325.809C230.974 329.152 233.528 331.852 236.04 334.552C237.945 335.88 239.85 337.252 241.754 337.894L246.212 339.223C251.926 340.552 257.64 339.223 263.355 335.88C264.003 335.194 264.611 335.194 265.259 334.552C266.07 334.037 266.88 333.394 267.61 332.709C268.501 331.894 269.271 330.994 269.96 330.009C271.014 328.637 271.784 327.223 272.311 325.766ZM236.121 334.509C235.959 334.423 235.838 334.337 235.675 334.209C235.513 334.08 235.351 333.994 235.23 333.866C235.189 333.823 235.149 333.78 235.108 333.78C235.068 333.737 235.027 333.694 234.946 333.652C234.784 333.523 234.622 333.394 234.5 333.266C234.338 333.137 234.176 332.966 234.014 332.837C233.041 331.809 232.15 330.737 231.299 329.623C231.218 329.494 231.096 329.323 231.015 329.194C230.934 329.066 230.812 328.894 230.731 328.723C230.65 328.594 230.569 328.466 230.488 328.337C230.407 328.209 230.367 328.123 230.285 327.994C230.204 327.866 230.164 327.737 230.083 327.652C230.042 327.566 229.961 327.437 229.921 327.352C229.921 327.352 229.88 327.309 229.88 327.266C229.799 327.137 229.759 327.009 229.678 326.88C229.597 326.709 229.515 326.537 229.434 326.366C229.353 326.194 229.272 326.023 229.191 325.809C231.055 329.152 233.568 331.809 236.121 334.509ZM236.121 334.509C235.959 334.423 235.838 334.337 235.675 334.209C235.513 334.08 235.351 333.994 235.23 333.866C235.189 333.823 235.108 333.78 235.068 333.737C235.027 333.737 234.986 333.694 234.986 333.652C234.824 333.523 234.662 333.394 234.541 333.266C234.379 333.137 234.216 332.966 234.054 332.837C233.082 331.809 232.19 330.737 231.339 329.623C231.258 329.494 231.137 329.323 231.055 329.194C230.974 329.066 230.893 328.894 230.772 328.766C230.691 328.637 230.61 328.509 230.529 328.38C230.448 328.252 230.407 328.166 230.326 328.037C230.245 327.909 230.204 327.78 230.123 327.694C230.083 327.609 230.002 327.48 229.961 327.394C229.961 327.394 229.921 327.352 229.921 327.309C229.921 327.309 229.921 327.309 229.921 327.266C229.921 327.266 229.921 327.223 229.88 327.223C229.88 327.223 229.88 327.18 229.84 327.18C229.799 327.094 229.759 327.009 229.718 326.923C229.637 326.751 229.556 326.58 229.475 326.409C229.394 326.237 229.313 326.066 229.232 325.851C231.055 329.152 233.568 331.809 236.121 334.509Z" fill="white"/>
<path d="M170.723 227.03L170.966 226.601L212.87 141.743L247.115 72.4858V72.443L247.155 52L173.195 221.415L170.926 226.558L170.723 227.03Z" fill="white"/>
<path d="M148.022 379.257L56.0273 434.886L220.887 428.543L229.114 377.5L229.762 373.471L229.843 373L234.869 339.914L235.517 337.214L235.639 336.656L236.003 335.071L236.125 334.556C235.558 334.171 234.99 333.785 234.504 333.356C234.342 333.228 234.18 333.056 234.018 332.928C233.693 332.628 233.369 332.285 233.045 331.985C232.397 331.299 231.829 330.528 231.302 329.714C231.1 329.414 230.897 329.114 230.694 328.771C230.613 328.642 230.532 328.514 230.451 328.385C230.168 327.914 229.924 327.442 229.681 326.928C229.6 326.756 229.519 326.585 229.438 326.414C229.357 326.242 229.276 326.071 229.195 325.856L228.911 326.028L227.047 327.142L197.666 344.799L193.978 347.028L149.805 373.557C150.696 375.571 149.967 378.1 148.022 379.257Z" fill="white"/>
<path d="M272.32 325.757L272.765 326.057L274.224 327.085L274.468 327.214L276.778 328.414L303.444 345.214L303.525 345.257L307.415 347.657L351.588 374.743C351.67 374.443 351.791 374.186 351.953 373.928C353.128 371.786 355.763 371.057 357.789 372.3L447.716 427.843L447.797 427.886L361.234 281.442L360.707 281.657L315.926 299.271L311.711 300.942L311.508 301.028L281.195 313.028L278.642 314.357H278.601L276.737 314.871L276.291 315L276.089 315.043C276.089 315.728 276.089 316.371 275.44 317.057C275.44 317.914 275.197 318.728 274.832 319.757C274.751 319.971 274.711 320.185 274.63 320.4C274.549 320.614 274.468 320.828 274.386 321.085C274.305 321.3 274.224 321.557 274.143 321.814C273.576 323.1 272.968 324.428 272.32 325.757Z" fill="white"/>
<path d="M170.723 226.383L170.926 226.554L211.37 261.998L236.132 283.512L238.685 286.212L240.59 288.226C243.751 286.212 247.56 285.526 250.762 285.526V247.255L250.924 189.569C248.614 189.526 246.75 187.511 246.79 185.069L247.114 72.4823V72.4395L173.195 221.412L170.723 226.383Z" fill="white"/>
<path d="M185.962 298.485C185.962 298.399 186.003 298.313 186.003 298.27C188.839 282.799 196.458 269.127 207.238 259.099C207.36 258.97 207.481 258.885 207.603 258.756C219.153 248.17 234.228 241.742 250.723 241.699H250.844C267.662 241.699 283.022 248.342 294.653 259.27C305.514 269.47 313.173 283.356 315.848 299.085C315.848 299.17 315.888 299.256 315.888 299.299C316.577 303.285 316.901 307.356 316.901 311.513C316.901 324.756 313.416 337.142 307.378 347.685C299.435 361.571 287.034 372.242 272.282 377.599C265.555 380.042 258.341 381.371 250.844 381.371C243.428 381.371 236.336 380.085 229.69 377.728C229.487 377.642 229.284 377.599 229.082 377.514C214.209 372.028 201.767 361.099 193.865 346.956C188.069 336.585 184.746 324.456 184.746 311.513C184.827 307.056 185.233 302.728 185.962 298.485ZM250.479 292.656C240.429 292.656 232.243 301.313 232.243 311.942C232.243 322.571 240.429 331.228 250.479 331.228C260.53 331.228 268.716 322.571 268.716 311.942C268.716 301.313 260.53 292.656 250.479 292.656Z" fill="white"/>
</svg>
